<?xml version="1.0" encoding="UTF-8" standalone="no"?>
<svg width="500px" height="500px" viewBox="0 0 500 500" version="1.1" xmlns="http://www.w3.org/2000/svg" xmlns:xlink="http://www.w3.org/1999/xlink" xmlns:sketch="http://www.bohemiancoding.com/sketch/ns">
    <!-- Generator: Sketch 3.3 (11970) - http://www.bohemiancoding.com/sketch -->
    <title>iOS Developers Logo 2</title>
    <desc>Created with Sketch.</desc>
    <defs></defs>
    <g id="Mark" stroke="none" stroke-width="1" fill="none" fill-rule="evenodd" sketch:type="MSPage">
        <g id="iOS-Developers" sketch:type="MSArtboardGroup" transform="translate(-250.000000, -250.000000)" fill="#FFFFFF">
            <path d="M486.979167,415.65538 L486.979167,500 L320.3125,500 L320.3125,584.34462 L320.3125,584.34462 C280.47357,590.595678 250,625.07243 250,666.666667 C250,712.690396 287.309604,750 333.333333,750 C379.357062,750 416.666667,712.690396 416.666667,666.666667 C416.666667,625.07243 386.193096,590.595678 346.354167,584.34462 L346.354167,526.041667 L653.645833,526.041667 L653.645833,584.34462 C613.806904,590.595678 583.333333,625.07243 583.333333,666.666667 C583.333333,712.690396 620.642938,750 666.666667,750 C712.690396,750 750,712.690396 750,666.666667 C750,625.07243 719.52643,590.595678 679.6875,584.34462 L679.6875,584.34462 L679.6875,500 L513.020833,500 L513.020833,500 L513.020833,415.65538 C552.859763,409.404322 583.333333,374.92757 583.333333,333.333333 C583.333333,287.309604 546.023729,250 500,250 C453.976271,250 416.666667,287.309604 416.666667,333.333333 C416.666667,374.92757 447.140237,409.404322 486.979167,415.65538 L486.979167,415.65538 Z M333.333333,723.958333 C364.974647,723.958333 390.625,698.30798 390.625,666.666667 C390.625,635.025353 364.974647,609.375 333.333333,609.375 C301.69202,609.375 276.041667,635.025353 276.041667,666.666667 C276.041667,698.30798 301.69202,723.958333 333.333333,723.958333 Z M666.666667,723.958333 C698.30798,723.958333 723.958333,698.30798 723.958333,666.666667 C723.958333,635.025353 698.30798,609.375 666.666667,609.375 C635.025353,609.375 609.375,635.025353 609.375,666.666667 C609.375,698.30798 635.025353,723.958333 666.666667,723.958333 Z M500,390.625 C531.641314,390.625 557.291667,364.974647 557.291667,333.333333 C557.291667,301.69202 531.641314,276.041667 500,276.041667 C468.358686,276.041667 442.708333,301.69202 442.708333,333.333333 C442.708333,364.974647 468.358686,390.625 500,390.625 Z" id="iOS-Developers-Logo-2" sketch:type="MSShapeGroup"></path>
        </g>
    </g>
</svg>