<?xml version="1.0" encoding="UTF-8" standalone="no"?>
<svg width="896px" height="896px" viewBox="0 0 896 896" version="1.1" xmlns="http://www.w3.org/2000/svg" xmlns:xlink="http://www.w3.org/1999/xlink" xmlns:sketch="http://www.bohemiancoding.com/sketch/ns">
    <!-- Generator: Sketch 3.3.1 (12002) - http://www.bohemiancoding.com/sketch -->
    <title>iOSDevelopersLogo</title>
    <desc>Created with Sketch.</desc>
    <defs></defs>
    <g id="Mark" stroke="none" stroke-width="1" fill="none" fill-rule="evenodd" sketch:type="MSPage">
        <g id="iOS-Developers-General-Use-Logo" sketch:type="MSArtboardGroup" transform="translate(-256.000000, -256.000000)" fill="#0069D8">
            <path d="M680.666667,552.854441 L680.666667,704 L382,704 L382,855.145559 L382,855.145559 C310.608638,866.347455 256,928.129795 256,1002.66667 C256,1085.14119 322.858811,1152 405.333333,1152 C487.807856,1152 554.666667,1085.14119 554.666667,1002.66667 C554.666667,928.129795 500.058029,866.347455 428.666667,855.145559 L428.666667,750.666667 L979.333333,750.666667 L979.333333,855.145559 C907.941971,866.347455 853.333333,928.129795 853.333333,1002.66667 C853.333333,1085.14119 920.192144,1152 1002.66667,1152 C1085.14119,1152 1152,1085.14119 1152,1002.66667 C1152,928.129795 1097.39136,866.347455 1026,855.145559 L1026,855.145559 L1026,704 L727.333333,704 L727.333333,552.854441 C798.724695,541.652545 853.333333,479.870205 853.333333,405.333333 C853.333333,322.858811 786.474523,256 704,256 C621.525477,256 554.666667,322.858811 554.666667,405.333333 C554.666667,479.870205 609.275305,541.652545 680.666667,552.854441 L680.666667,552.854441 Z M405.333333,1105.33333 C462.034568,1105.33333 508,1059.3679 508,1002.66667 C508,945.965432 462.034568,900 405.333333,900 C348.632099,900 302.666667,945.965432 302.666667,1002.66667 C302.666667,1059.3679 348.632099,1105.33333 405.333333,1105.33333 Z M1002.66667,1105.33333 C1059.3679,1105.33333 1105.33333,1059.3679 1105.33333,1002.66667 C1105.33333,945.965432 1059.3679,900 1002.66667,900 C945.965432,900 900,945.965432 900,1002.66667 C900,1059.3679 945.965432,1105.33333 1002.66667,1105.33333 Z M704,508 C760.701234,508 806.666667,462.034568 806.666667,405.333333 C806.666667,348.632099 760.701234,302.666667 704,302.666667 C647.298766,302.666667 601.333333,348.632099 601.333333,405.333333 C601.333333,462.034568 647.298766,508 704,508 Z" id="iOSDevelopersLogo" sketch:type="MSShapeGroup"></path>
        </g>
    </g>
</svg>