<?xml version="1.0" encoding="UTF-8" standalone="no"?>
<svg width="1173px" height="253px" viewBox="0 0 1173 253" version="1.1" xmlns="http://www.w3.org/2000/svg" xmlns:xlink="http://www.w3.org/1999/xlink" xmlns:sketch="http://www.bohemiancoding.com/sketch/ns">
    <!-- Generator: Sketch 3.3.2 (12043) - http://www.bohemiancoding.com/sketch -->
    <title>logo-treehouse</title>
    <desc>Created with Sketch.</desc>
    <defs></defs>
    <g id="Page-1" stroke="none" stroke-width="1" fill="none" fill-rule="evenodd" sketch:type="MSPage">
        <g id="logo-treehouse" sketch:type="MSLayerGroup">
            <path d="M335.99,186.266 C314.01,186.266 304.09,171.204 304.09,151.357 L304.09,81.363 C304.09,74.452 309.23,68.958 315.96,68.958 C322.52,68.958 327.83,74.452 327.83,81.363 L327.83,93.413 L349.98,93.413 C355.83,93.413 360.97,97.842 360.97,104.044 C360.97,109.892 355.83,114.323 349.98,114.323 L327.83,114.323 L327.83,150.826 C327.83,159.332 331.56,163.939 339.35,163.939 C343.25,163.939 347.15,162.875 350.34,161.99 C359.38,159.863 365.05,165.534 365.05,172.089 C365.05,175.988 363.1,180.064 357.6,182.544 C351.4,185.379 342.72,186.266 335.99,186.266" id="Fill-4" fill="#424C50" sketch:type="MSShapeGroup"></path>
            <path d="M439.12,102.45 C439.12,107.234 435.39,113.614 427.95,113.614 C423.88,113.614 419.98,111.841 414.66,112.019 C408.81,112.196 405.45,115.385 405.45,123.537 L405.45,173.684 C405.45,180.418 400.31,185.734 393.57,185.734 C387.02,185.734 381.7,180.418 381.7,173.684 L381.7,119.107 C381.7,100.678 392.51,88.805 412.89,88.805 C418.74,88.805 424.58,89.337 428.13,90.223 C435.39,92.172 439.12,96.602 439.12,102.45" id="Fill-5" fill="#424C50" sketch:type="MSShapeGroup"></path>
            <path d="M506.46,129.562 C507.7,129.562 508.4,128.853 508.4,127.435 C508.94,116.626 502.2,109.361 490.68,109.361 C478.1,109.361 471.9,117.335 471.9,129.562 L506.46,129.562 L506.46,129.562 Z M531.26,133.815 C531.26,140.725 527.72,145.687 519.04,145.687 L471.9,145.687 L471.9,147.458 C471.9,158.622 480.41,164.647 492.28,164.647 C498.66,164.647 505.21,163.052 511.24,160.749 C520.63,157.205 526.83,163.585 526.83,170.14 C526.83,173.507 525.59,177.229 520.81,180.064 C514.25,183.962 502.91,186.266 491.57,186.266 C467.12,186.266 450.64,170.849 448.87,148.7 C448.33,141.789 448.51,132.043 448.87,126.549 C450.99,103.513 467.47,88.805 490.68,88.805 C514.78,88.805 531.26,104.93 531.26,129.917 L531.26,133.815 L531.26,133.815 Z" id="Fill-6" fill="#424C50" sketch:type="MSShapeGroup"></path>
            <path d="M606.57,129.562 C607.81,129.562 608.52,128.853 608.52,127.435 C609.05,116.626 602.32,109.361 590.8,109.361 C578.22,109.361 572.02,117.335 572.02,129.562 L606.57,129.562 L606.57,129.562 Z M631.38,133.815 C631.38,140.725 627.84,145.687 619.16,145.687 L572.02,145.687 L572.02,147.458 C572.02,158.622 580.53,164.647 592.4,164.647 C598.78,164.647 605.33,163.052 611.36,160.749 C620.75,157.205 626.95,163.585 626.95,170.14 C626.95,173.507 625.71,177.229 620.93,180.064 C614.37,183.962 603.03,186.266 591.69,186.266 C567.24,186.266 550.76,170.849 548.98,148.7 C548.45,141.789 548.63,132.043 548.98,126.549 C551.11,103.513 567.59,88.805 590.8,88.805 C614.9,88.805 631.38,104.93 631.38,129.917 L631.38,133.815 L631.38,133.815 Z" id="Fill-7" fill="#424C50" sketch:type="MSShapeGroup"></path>
            <path d="M675.51,95.716 C679.4,92.172 688.44,88.805 697.83,88.805 C720.34,88.805 733.63,102.273 733.63,127.613 L733.63,173.153 C733.63,180.241 728.67,185.734 721.58,185.734 C715.02,185.734 709.88,180.241 709.88,173.153 L709.88,128.853 C709.88,118.043 703.68,112.019 693.94,112.019 C686.49,112.019 679.23,115.385 675.51,119.461 L675.51,173.507 C675.51,180.241 670.54,185.734 663.81,185.734 C657.25,185.734 651.76,180.241 651.76,173.507 L651.76,69.845 C651.76,62.934 656.9,57.618 663.63,57.618 C670.19,57.618 675.51,62.934 675.51,69.845 L675.51,95.716" id="Fill-8" fill="#424C50" sketch:type="MSShapeGroup"></path>
            <path d="M815.67,128.675 C815.14,118.576 808.05,111.487 796.89,111.487 C785.73,111.487 778.82,118.576 777.93,128.675 C777.58,133.46 777.58,141.789 777.93,146.396 C778.82,156.497 785.73,163.585 796.89,163.585 C808.05,163.585 814.96,156.497 815.67,146.396 C816.03,141.789 816.03,133.46 815.67,128.675 L815.67,128.675 Z M796.89,186.266 C773.68,186.266 756.13,171.381 754.36,150.294 C753.83,143.207 753.83,132.043 754.36,124.955 C756.13,103.69 773.68,88.805 796.89,88.805 C820.28,88.805 837.47,103.69 839.24,124.955 C839.77,132.043 839.77,143.029 839.24,150.117 C837.47,171.381 820.28,186.266 796.89,186.266 L796.89,186.266 Z" id="Fill-9" fill="#424C50" sketch:type="MSShapeGroup"></path>
            <path d="M859.97,101.918 C859.97,94.831 864.23,89.337 871.67,89.337 C878.4,89.337 883.72,94.831 883.72,101.918 L883.72,147.104 C883.72,157.737 890.63,163.585 900.73,163.585 C908.53,163.585 914.38,161.281 918.1,158.977 L918.1,101.564 C918.1,94.831 923.06,89.337 929.97,89.337 C936.52,89.337 941.84,94.831 941.84,101.564 L941.84,167.836 C941.84,171.913 940.78,174.216 937.59,176.165 C932.09,180.064 919.16,186.266 900.2,186.266 C874.68,186.266 859.97,172.444 859.97,147.458 L859.97,101.918" id="Fill-10" fill="#424C50" sketch:type="MSShapeGroup"></path>
            <path d="M1035.4,155.433 C1035.4,175.28 1018.92,186.266 998.37,186.266 C981.71,186.266 971.08,181.481 964.52,175.988 C960.27,172.444 959.03,165.71 962.4,161.281 C965.94,156.497 971.97,155.433 977.81,159.154 C983.31,162.698 990.57,165.001 998.9,165.001 C1008.12,165.001 1012.37,161.635 1012.37,156.85 C1012.37,152.952 1009.53,150.294 1002.09,148.522 C995.71,147.104 995.89,147.282 988.98,145.509 C974.45,141.789 963.11,133.637 963.11,118.398 C963.11,99.26 978.52,88.805 999.26,88.805 C1010.42,88.805 1021.94,91.64 1028.14,96.78 C1033.28,101.032 1032.92,108.297 1029.2,112.55 C1025.66,116.449 1019.63,116.98 1013.79,113.968 C1009.18,111.664 1002.98,110.07 998.37,110.07 C989.51,110.07 985.79,113.436 985.79,117.689 C985.79,121.411 988.45,123.891 996.42,125.664 L1009,128.499 C1026.72,132.751 1035.4,141.434 1035.4,155.433" id="Fill-11" fill="#424C50" sketch:type="MSShapeGroup"></path>
            <path d="M1108.94,129.562 C1110.18,129.562 1110.89,128.853 1110.89,127.435 C1111.42,116.626 1104.69,109.361 1093.17,109.361 C1080.59,109.361 1074.39,117.335 1074.39,129.562 L1108.94,129.562 L1108.94,129.562 Z M1133.75,133.815 C1133.75,140.725 1130.21,145.687 1121.53,145.687 L1074.39,145.687 L1074.39,147.458 C1074.39,158.622 1082.9,164.647 1094.77,164.647 C1101.15,164.647 1107.7,163.052 1113.73,160.749 C1123.12,157.205 1129.32,163.585 1129.32,170.14 C1129.32,173.507 1128.08,177.229 1123.3,180.064 C1116.74,183.962 1105.4,186.266 1094.06,186.266 C1069.61,186.266 1053.13,170.849 1051.35,148.7 C1050.82,141.789 1051,132.043 1051.35,126.549 C1053.48,103.513 1069.96,88.805 1093.17,88.805 C1117.27,88.805 1133.75,104.93 1133.75,129.917 L1133.75,133.815 L1133.75,133.815 Z" id="Fill-12" fill="#424C50" sketch:type="MSShapeGroup"></path>
            <path d="M1161.41,92.247 L1163.17,99.928 L1164.98,92.247 C1165.31,90.71 1166.63,89.777 1168,89.777 C1169.59,89.777 1170.85,90.71 1171.18,92.63 L1172.77,102.727 C1172.99,103.934 1172.55,105.141 1171.35,105.361 C1169.92,105.635 1168.99,104.812 1168.82,103.605 L1167.72,95.1 L1165.75,103.056 C1165.36,104.427 1164.54,105.361 1163.17,105.361 C1161.91,105.361 1161.03,104.538 1160.59,103.056 L1158.62,95.044 L1157.52,103.605 C1157.35,104.812 1156.42,105.635 1154.99,105.361 C1153.79,105.141 1153.35,103.934 1153.57,102.727 L1155.16,92.685 C1155.49,90.71 1156.8,89.777 1158.34,89.777 C1159.77,89.777 1161.08,90.71 1161.41,92.247 L1161.41,92.247 Z M1149.01,103.331 C1149.01,104.483 1148.13,105.361 1146.98,105.361 C1145.78,105.361 1144.9,104.427 1144.9,103.331 L1144.9,93.892 L1141.82,93.892 C1140.78,93.892 1139.9,93.014 1139.9,91.972 C1139.9,90.82 1140.78,89.997 1141.82,89.997 L1151.98,89.997 C1153.02,89.997 1153.9,90.82 1153.9,91.972 C1153.9,93.014 1153.02,93.892 1151.98,93.892 L1149.01,93.892 L1149.01,103.331 L1149.01,103.331 Z" id="Fill-13" fill="#424C50" sketch:type="MSShapeGroup"></path>
            <path d="M204.96,46.777 C196.61,42.052 183.26,49.65 175.16,63.746 L160.49,89.269 C155.13,99.88 155.86,112.513 162.66,122.267 L163.09,122.882 C169.89,132.634 179,141.65 182.02,144.866 C183.79,146.755 185.15,149.089 185.9,151.759 C188.38,160.62 183.2,169.812 174.34,172.292 C165.48,174.77 156.29,169.597 153.81,160.736 C153.19,158.511 153.05,156.267 153.33,154.113 C153.8,150.452 152.63,144.489 147.38,138.634 C142.13,132.781 131.4,143.837 127.93,155.207 L127.77,155.731 C124.3,167.101 122.11,177.024 122.77,177.978 C123.16,178.546 123.52,179.144 123.85,179.769 C128.72,188.927 125.24,200.297 116.08,205.164 C106.92,210.034 95.55,206.555 90.69,197.397 C85.82,188.238 89.3,176.869 98.45,172 C98.87,171.782 99.28,171.58 99.7,171.396 C100.4,171.087 102.38,166.307 104.11,160.662 C105.83,155.014 107.23,150.438 107.23,150.438 C107.41,149.837 107.57,149.243 107.71,148.654 L116.98,115.562 L107.07,135.908 C105.89,132.044 103.95,131.908 99.7,134.951 C97.13,136.787 92.89,140.401 90.82,141.883 C86.93,144.668 83.67,150.076 81.95,153.389 C80.94,155.339 79.51,157.118 77.7,158.589 C70.6,164.348 60.18,163.263 54.42,156.167 C48.67,149.07 49.75,138.65 56.85,132.892 C58.93,131.203 61.29,130.103 63.74,129.57 C67.91,128.664 82.09,120.002 90.64,113.89 C92.17,112.796 93.45,111.761 94.49,110.801 L117.3,93.478 L97.44,104.211 C97.44,104.211 95.42,104.007 92.94,104.283 C85.67,105.089 78.18,106.114 76.76,107.914 C75.93,108.978 74.93,109.944 73.78,110.773 C67.15,115.549 57.9,114.045 53.12,107.414 C48.35,100.784 49.85,91.536 56.48,86.76 C59.22,84.79 62.4,83.89 65.52,83.977 C70.84,84.124 84.83,86.961 96.54,84.886 L99.54,84.354 C111.25,82.28 125.27,72.089 130.85,61.593 C130.85,61.593 136.32,51.989 143.06,40.14 C149.81,28.292 149.31,15.314 141.95,11.154 L128.63,3.62 C121.9,-0.181 110.9,-0.188 104.17,3.605 L12.39,55.345 C5.66,59.139 0.16,68.562 0.16,76.285 L0.16,177.394 C0.16,185.117 5.66,194.539 12.39,198.333 L104.17,250.072 C110.9,253.867 121.9,253.859 128.63,250.059 L220.09,198.347 C226.81,194.546 232.32,185.117 232.32,177.394 L232.32,76.285 C232.32,68.562 226.81,59.131 220.09,55.331 C220.09,55.331 213.32,51.501 204.96,46.777" id="Fill-14" fill="#67B569" sketch:type="MSShapeGroup"></path>
        </g>
    </g>
</svg>